# xmcd
#
# Track frame offsets: 
#        150
#        19604
#        35817
#        62452
#        83505
#        108271
#        129289
#        148756
#
# Disc length: 2356 seconds
#
# Revision: 1
# Processed by: cddbd v1.5.2PL0 Copyright (c) Steve Scherf et al.
# Submitted via: ExactAudioCopy v1.1
#
DISCID=5e093208
DTITLE=Harry Muskee Band - Love Vendetta
DYEAR=1977
DGENRE=Blues
TTITLE0=Devil Daisy
TTITLE1=Victor
TTITLE2=Solid Sender
TTITLE3=Claws
TTITLE4=Mr. Cool
TTITLE5=Love Vendetta
TTITLE6=Piece Of Mind
TTITLE7=Bad News
EXTD=
EXTT0=
EXTT1=
EXTT2=
EXTT3=
EXTT4=
EXTT5=
EXTT6=
EXTT7=
PLAYORDER=
